<svg id="Layer_1" data-name="Layer 1" xmlns="http://www.w3.org/2000/svg" viewBox="0 0 626 626"><title>fb</title><path d="M-6,616V178c.36-1.08.78-2.14,1.07-3.24,1.79-6.75,3-13.72,5.42-20.22A107.43,107.43,0,0,1,31,110.79C43.76,99.66,58.07,91.53,74.52,87.34,79,86.2,83.51,85.11,88,84H526a33.39,33.39,0,0,0,3.74,1.12,107.58,107.58,0,0,1,37.64,14.09A111.94,111.94,0,0,1,595.87,124c8.76,10.81,15.7,22.72,19.54,36.22,1.67,5.89,3.07,11.86,4.59,17.79V616c-.38,1.24-.87,2.46-1.13,3.73a116.7,116.7,0,0,1-7.17,24.37,110.7,110.7,0,0,1-31.3,41.45c-11,9.07-23.24,16.12-37.08,20-5.74,1.61-11.55,2.95-17.32,4.42H405c-.14-1.64-.41-3.29-.42-4.93q0-112.73,0-225.44v-6H508.48V369.07H405a29.24,29.24,0,0,1-.36-3.05c0-7.83-.06-15.66,0-23.49,0-6.5-.15-13,.37-19.48,1.23-15.29,10.21-23.39,25.41-23.39q36,0,72,0c2.07,0,4.14-.32,6.16-.49V195.49c-1.38-.11-2.51-.28-3.63-.28-26.83,0-53.65-.16-80.48,0-21.74.18-41.42,6.89-59.35,19.26-20.15,13.9-34.71,32.36-44.88,54.35a140.9,140.9,0,0,0-13.17,61c.09,11.5,0,23,0,34.49,0,1.45-.17,2.9-.29,4.79H231.25c-1.29,5.07-1.15,100.22.18,104.52H307V710H88a22.4,22.4,0,0,0-3.22-1A106.82,106.82,0,0,1,46.33,694.6,111.15,111.15,0,0,1,18,669.84C8.54,658.1,1.3,645.13-2.41,630.37Q-4.21,623.19-6,616Z" transform="translate(6 -84)"/></svg>