<svg id="Layer_1" data-name="Layer 1" xmlns="http://www.w3.org/2000/svg" viewBox="0 0 209.27 213.17"><title>ig</title><path d="M414.07,398c0,17.82-.26,35.65.06,53.46a52.49,52.49,0,0,1-43.27,52.25,45.06,45.06,0,0,1-8,.54c-35.47,0-70.95-.1-106.42.07-22.29.11-44.34-15.91-49.93-39.81a51.09,51.09,0,0,1-1.48-11.33c-.11-37-.37-73.95,0-110.93.31-27.88,22.33-48.08,45.67-50.43,3.64-.37,7.31-.59,11-.6,33,0,66-.16,98.93,0,20.4.12,36.17,8.91,46.64,26.58a48.51,48.51,0,0,1,6.77,25.21Q414.06,370.53,414.07,398ZM398,398c0-15.33.11-30.66-.07-46a49.56,49.56,0,0,0-1.61-11.8c-5.18-19.76-23.63-32.36-41.4-32.34q-45.48,0-91,0a33.06,33.06,0,0,0-6,.42,44.42,44.42,0,0,0-36.86,44c-.06,30.33,0,60.66,0,91A44.64,44.64,0,0,0,265.73,488c29.16-.19,58.32,0,87.49-.05a43.75,43.75,0,0,0,6.48-.29C385,483.7,398.43,462.48,398,443,397.74,428,398,413,398,398Z" transform="translate(-204.88 -291.17)"/><path d="M309.39,451.26c-27,.52-53.17-21.63-53.35-53.31-.18-29.59,24.08-53.65,53.7-53.58A53.42,53.42,0,0,1,363,398.29C362.94,428.15,338,451.84,309.39,451.26Zm.28-13.09c21.32.42,39.6-18.34,39.37-40.53-.24-22-17.75-40.36-39.33-40.2-24.26.18-39.95,20.42-39.66,40.91C270.36,421.08,289.05,438.71,309.67,438.17Z" transform="translate(-204.88 -291.17)"/><path d="M381.05,341.92a15.83,15.83,0,0,1-15.47,16.19A16,16,0,0,1,349,342.41,16.42,16.42,0,0,1,365.06,326,16.18,16.18,0,0,1,381.05,341.92Z" transform="translate(-204.88 -291.17)"/></svg>