<svg id="Layer_1" data-name="Layer 1" xmlns="http://www.w3.org/2000/svg" viewBox="0 0 600 600"><title>yt</title><path d="M517,697H97a32.45,32.45,0,0,0-3.83-1C52.94,691.23,19.3,661.34,10,622c-1.17-5-2-10-3-15V186a19.19,19.19,0,0,0,1-3.25A97.81,97.81,0,0,1,82.41,99.93C87.24,98.81,92.14,98,97,97H517a32.45,32.45,0,0,0,3.83,1,97.6,97.6,0,0,1,82.11,70.18c1.73,6.18,2.73,12.57,4.06,18.87V607a40.31,40.31,0,0,0-1,4.29c-4.67,38.23-32.59,71.05-69.62,81.53C530,694.62,523.47,695.63,517,697ZM302.84,539.17c35.44-.86,65.77-1.18,96.06-2.46,19.44-.82,38.87-2.64,58.22-4.76,22.52-2.47,39.22-17.36,44.09-39.53a303.69,303.69,0,0,0,5.67-38A671.22,671.22,0,0,0,508,352.59c-1.11-17.61-2.37-35.26-7-52.38-5.12-18.9-17.37-31.1-36.3-36.21A87,87,0,0,0,448,261.07c-26.75-1.81-53.49-4-80.28-4.79-61.47-1.84-122.93-1.28-184.32,2.78-9.46.63-18.94,1.63-28.28,3.18-23.89,4-39.84,20.81-44.14,46-4.34,25.35-5.74,50.95-6.1,76.61-.48,33.85.44,67.63,6.12,101.1,4.4,25.91,21.13,42.67,46.33,46,13.69,1.79,27.47,3.37,41.25,3.94C235,537.31,271.48,538.2,302.84,539.17Z" transform="translate(-7 -97)"/><path d="M267.14,457.18V336.83l104.47,60.29Z" transform="translate(-7 -97)"/></svg>